<!DOCTYPE svg PUBLIC "-//W3C//DTD SVG 1.1//EN" "http://www.w3.org/Graphics/SVG/1.1/DTD/svg11.dtd">
<!-- Uploaded to: SVG Repo, www.svgrepo.com, Transformed by: SVG Repo Mixer Tools -->
<svg fill="#638942" width="800px" height="800px" viewBox="0 0 24 24" xmlns="http://www.w3.org/2000/svg">
<g id="SVGRepo_bgCarrier" stroke-width="0"/>
<g id="SVGRepo_tracerCarrier" stroke-linecap="round" stroke-linejoin="round"/>
<g id="SVGRepo_iconCarrier">
<path d="M7,2A1,1,0,0,1,8,1h8a1,1,0,0,1,0,2H8A1,1,0,0,1,7,2ZM3,20V8A3,3,0,0,1,6,5H18a3,3,0,0,1,3,3V20a3,3,0,0,1-3,3H6A3,3,0,0,1,3,20Zm16-1H5v1a1,1,0,0,0,1,1H18a1,1,0,0,0,1-1ZM5,8v9H19V8a1,1,0,0,0-1-1H6A1,1,0,0,0,5,8Zm6,7h2V13h2V11H13V9H11v2H9v2h2Z"/>
</g>
</svg>