<?xml version="1.0" encoding="utf-8"?><svg version="1.1" id="Layer_1" xmlns="http://www.w3.org/2000/svg" xmlns:xlink="http://www.w3.org/1999/xlink" x="0px" y="0px" width="122.88px" height="80.123px" viewBox="0 0 122.88 80.123" enable-background="new 0 0 122.88 80.123" xml:space="preserve"><g><path fill-rule="evenodd" clip-rule="evenodd" d="M4.297,0h114.285c2.365,0,4.298,1.948,4.298,4.329v75.794H0V4.329 C0,1.948,1.932,0,4.297,0L4.297,0z M11.37,10.073h82.644v12.046H11.37V10.073L11.37,10.073z M83.428,47.727h28.082v6.672H83.428 V47.727L83.428,47.727z M61.978,47.727h15.718v6.672H61.978V47.727L61.978,47.727z M61.978,62.756h49.532v6.67H61.978V62.756 L61.978,62.756z M60.803,32.701h50.707v6.671H60.803V32.701L60.803,32.701z M11.37,70.051v-6.84 c3.66-1.629,14.865-4.648,15.396-9.131c0.118-1.012-2.268-4.943-2.814-6.791c-0.687-1.098-1.057-1.488-1.039-2.84 c0.009-0.762,0.021-1.51,0.129-2.242c0.141-0.934,0.111-0.965,0.601-1.717c0.51-0.782,0.291-3.64,0.291-4.717 c0-10.727,18.795-10.729,18.795,0c0,1.356-0.311,3.848,0.426,4.914c0.358,0.52,0.292,0.58,0.413,1.215 c0.159,0.83,0.17,1.682,0.184,2.547c0.018,1.352-0.352,1.742-1.039,2.84c-0.667,1.943-3.2,5.615-2.984,6.715 c0.805,4.092,11.2,6.842,14.473,8.297v7.75H11.37L11.37,70.051z M99.08,10.073h12.43v12.046H99.08V10.073L99.08,10.073z"/></g></svg>